<svg width="38" height="38" viewBox="0 0 38 38" fill="none" xmlns="http://www.w3.org/2000/svg">
<g clip-path="url(#clip0_628_1030)">
<path d="M10.5074 31.5812C15.6585 31.5812 19.8342 27.564 19.8342 22.6086C19.8342 17.6531 15.6585 13.636 10.5074 13.636C5.3564 13.636 1.18066 17.6531 1.18066 22.6086C1.18066 27.564 5.3564 31.5812 10.5074 31.5812Z" fill="#83BF4F"/>
<path d="M10.5074 21.1328C15.3976 21.1328 19.3619 17.327 19.3619 12.6324C19.3619 7.93781 15.3976 4.13208 10.5074 4.13208C5.61714 4.13208 1.65283 7.93781 1.65283 12.6324C1.65283 17.327 5.61714 21.1328 10.5074 21.1328Z" fill="#83BF4F"/>
<path d="M20.1885 18.7717C25.2417 18.7717 29.3382 14.8338 29.3382 9.97616C29.3382 5.11854 25.2417 1.18066 20.1885 1.18066C15.1353 1.18066 11.0388 5.11854 11.0388 9.97616C11.0388 14.8338 15.1353 18.7717 20.1885 18.7717Z" fill="#83BF4F"/>
<path d="M28.9249 24.2024C33.1631 24.2024 36.5988 20.8988 36.5988 16.8236C36.5988 12.7484 33.1631 9.44482 28.9249 9.44482C24.6867 9.44482 21.251 12.7484 21.251 16.8236C21.251 20.8988 24.6867 24.2024 28.9249 24.2024Z" fill="#83BF4F"/>
<path d="M23.317 31.1089C27.5552 31.1089 30.9909 27.8053 30.9909 23.7301C30.9909 19.6549 27.5552 16.3513 23.317 16.3513C19.0788 16.3513 15.6431 19.6549 15.6431 23.7301C15.6431 27.8053 19.0788 31.1089 23.317 31.1089Z" fill="#83BF4F"/>
<path d="M17.0595 37.7793C17.2366 35.418 16.8824 32.9388 16.5282 30.3415C16.1741 27.7441 15.7018 25.0878 15.7018 22.3724C15.6428 19.657 15.997 16.8826 16.9415 14.3443C17.8269 11.806 19.1846 9.5038 20.7784 7.43774C19.4207 9.68089 18.4172 12.1011 17.8859 14.6394C17.3547 17.1187 17.3547 19.716 17.7088 22.1953C18.063 24.6746 18.7714 27.1538 19.5388 29.6921C20.2471 32.2304 21.0145 34.8868 21.1916 37.7793H17.0595Z" fill="#947151"/>
<path d="M16.7645 21.3688C17.9451 21.4868 19.2437 21.4278 20.4834 21.3097C21.723 21.1917 22.9626 20.8965 24.1432 20.4833C25.3239 20.0701 26.4454 19.4798 27.4489 18.7124C28.4524 17.945 29.3379 17.0005 29.9872 15.879C29.3969 17.0005 28.6295 18.0631 27.626 18.9485C26.6815 19.834 25.56 20.4833 24.3203 21.0146C23.1397 21.5459 21.8411 21.9001 20.6014 22.1952C19.3028 22.4313 18.0041 22.6084 16.6464 22.5494L16.7645 21.3688ZM16.4103 20.5424C15.5248 20.0111 14.7574 19.4208 14.0491 18.8305C13.3407 18.1812 12.6324 17.4728 12.0421 16.7644C10.8615 15.2296 9.97601 13.3997 9.85794 11.5107C10.1531 13.3997 11.2156 15.0526 12.5143 16.3512C13.1636 17.0005 13.872 17.5908 14.6394 18.1221C15.4068 18.6534 16.2332 19.1256 17.0006 19.4798L16.4103 20.5424ZM17.3548 27.2718C16.3513 27.2128 15.4068 27.0357 14.4623 26.7996C13.5178 26.5634 12.6324 26.2093 11.7469 25.737C10.035 24.7925 8.55928 23.4348 7.67383 21.723C8.73637 23.3168 10.2712 24.4974 11.983 25.1467C12.8095 25.5009 13.7539 25.737 14.6394 25.9141C15.5248 26.0912 16.4693 26.1502 17.3548 26.0912V27.2718Z" fill="#947151"/>
<path d="M5.785 24.7337C5.785 26.0324 4.72246 27.0949 4.72246 27.0949C4.72246 27.0949 3.65991 26.0324 3.65991 24.7337C3.65991 23.435 4.72246 22.3725 4.72246 22.3725C4.72246 22.3725 5.785 23.435 5.785 24.7337ZM33.116 19.6571C33.116 20.9558 32.0534 22.0183 32.0534 22.0183C32.0534 22.0183 30.9909 20.9558 30.9909 19.6571C30.9909 18.3584 32.0534 17.2959 32.0534 17.2959C32.0534 17.2959 33.116 18.3584 33.116 19.6571ZM8.73651 27.7442C8.73651 29.0429 7.67396 30.1055 7.67396 30.1055C7.67396 30.1055 6.61142 29.0429 6.61142 27.7442C6.61142 26.4456 7.67396 25.383 7.67396 25.383C7.67396 25.383 8.73651 26.4456 8.73651 27.7442ZM5.785 12.3374C5.785 13.636 4.72246 14.6986 4.72246 14.6986C4.72246 14.6986 3.65991 13.636 3.65991 12.3374C3.65991 11.0387 4.72246 9.97616 4.72246 9.97616C4.72246 9.97616 5.785 11.0387 5.785 12.3374ZM8.73651 8.91362C8.73651 10.2123 7.67396 11.2748 7.67396 11.2748C7.67396 11.2748 6.61142 10.2123 6.61142 8.91362C6.61142 7.61496 7.67396 6.55241 7.67396 6.55241C7.67396 6.55241 8.73651 7.61496 8.73651 8.91362ZM23.9073 10.6255C23.9073 11.9242 22.8447 12.9867 22.8447 12.9867C22.8447 12.9867 21.8412 11.9242 21.8412 10.6255C21.8412 9.32683 22.9037 8.26429 22.9037 8.26429C22.9037 8.26429 23.9073 9.32683 23.9073 10.6255ZM26.8588 7.43787C26.8588 8.73653 25.7962 9.79907 25.7962 9.79907C25.7962 9.79907 24.7337 8.73653 24.7337 7.43787C24.7337 6.1392 25.7962 5.07666 25.7962 5.07666C25.7962 5.07666 26.8588 6.1392 26.8588 7.43787ZM13.1047 21.1329C13.1047 22.4315 12.0422 23.4941 12.0422 23.4941C12.0422 23.4941 10.9797 22.4315 10.9797 21.1329C10.9797 19.8342 12.0422 18.7717 12.0422 18.7717C12.0422 18.7717 13.1047 19.8342 13.1047 21.1329ZM9.79905 18.1223C9.79905 19.421 8.73651 20.4835 8.73651 20.4835C8.73651 20.4835 7.67396 19.421 7.67396 18.1223C7.67396 16.8237 8.73651 15.7611 8.73651 15.7611C8.73651 15.7611 9.79905 16.8237 9.79905 18.1223ZM15.4069 12.3374C15.4069 13.636 14.3444 14.6986 14.3444 14.6986C14.3444 14.6986 13.2818 13.636 13.2818 12.3374C13.2818 11.0387 14.3444 9.97616 14.3444 9.97616C14.3444 9.97616 15.4069 11.0387 15.4069 12.3374ZM17.7091 8.26429C17.7091 9.56295 16.6466 10.6255 16.6466 10.6255C16.6466 10.6255 15.584 9.56295 15.584 8.26429C15.584 6.96563 16.6466 5.90308 16.6466 5.90308C16.6466 5.90308 17.7091 6.96563 17.7091 8.26429ZM20.8967 18.1223C20.8967 19.421 19.8342 20.4835 19.8342 20.4835C19.8342 20.4835 18.7716 19.421 18.7716 18.1223C18.7716 16.8237 19.8342 15.7611 19.8342 15.7611C19.8342 15.7611 20.8967 16.8237 20.8967 18.1223ZM28.9248 23.4941C28.9248 24.7927 27.8623 25.8553 27.8623 25.8553C27.8623 25.8553 26.7997 24.7927 26.7997 23.4941C26.7997 22.1954 27.8623 21.1329 27.8623 21.1329C27.8623 21.1329 28.9248 22.1954 28.9248 23.4941ZM26.8588 13.636C26.8588 14.9347 25.7962 15.9972 25.7962 15.9972C25.7962 15.9972 24.7337 14.9347 24.7337 13.636C24.7337 12.3374 25.7962 11.2748 25.7962 11.2748C25.7962 11.2748 26.8588 12.3374 26.8588 13.636ZM23.317 25.383C23.317 26.6817 22.2544 27.7442 22.2544 27.7442C22.2544 27.7442 21.1919 26.6817 21.1919 25.383C21.1919 24.0844 22.2544 23.0218 22.2544 23.0218C22.2544 23.0218 23.317 24.0844 23.317 25.383ZM26.0914 28.0394C26.0914 29.3381 25.0288 30.4006 25.0288 30.4006C25.0288 30.4006 23.9663 29.3381 23.9663 28.0394C23.9663 26.7407 25.0288 25.6782 25.0288 25.6782C25.0288 25.6782 26.0914 26.7407 26.0914 28.0394Z" fill="#75A843"/>
</g>
<defs>
<clipPath id="clip0_628_1030">
<rect width="37.7793" height="37.7793" fill="white"/>
</clipPath>
</defs>
</svg>
