<svg width="44" height="48" viewBox="0 0 44 48" fill="none" xmlns="http://www.w3.org/2000/svg">
<g clip-path="url(#clip0_628_1041)">
<path d="M36.4001 6.72995C36.7885 6.30923 37.4532 6.30925 37.8416 6.73L42.8449 12.1502C43.1917 12.526 43.1917 13.1052 42.8448 13.4809L37.8417 18.9002C37.4533 19.321 36.7886 19.3209 36.4002 18.9002L31.3969 13.48C31.05 13.1042 31.0501 12.525 31.397 12.1493L36.4001 6.72995Z" fill="#FF9800"/>
<path d="M32.5964 8.82808C32.5964 8.28634 33.0356 7.84717 33.5773 7.84717H40.6701C41.2118 7.84717 41.651 8.28634 41.651 8.82808V16.6753C41.651 17.2171 41.2118 17.6563 40.6701 17.6563H33.5773C33.0356 17.6563 32.5964 17.2171 32.5964 16.6753V8.82808Z" fill="#FF9800"/>
<path d="M37.1236 15.6945C38.6238 15.6945 39.84 14.377 39.84 12.7518C39.84 11.1266 38.6238 9.80908 37.1236 9.80908C35.6234 9.80908 34.4072 11.1266 34.4072 12.7518C34.4072 14.377 35.6234 15.6945 37.1236 15.6945Z" fill="#FFEB3B"/>
<path d="M15.7682 18.9613C15.3829 18.3542 14.4971 18.3542 14.1118 18.9613L0.956051 39.6916C0.541604 40.3446 1.01078 41.1981 1.78426 41.1981H28.0957C28.8692 41.1981 29.3384 40.3446 28.9239 39.6916L15.7682 18.9613Z" fill="white"/>
<path d="M31.6069 25.1446C31.0188 24.3481 29.8278 24.3481 29.2397 25.1446L19.1168 38.8527C18.3995 39.824 19.0929 41.1981 20.3004 41.1981H40.5462C41.7537 41.1981 42.4471 39.824 41.7299 38.8527L31.6069 25.1446Z" fill="#EFF3F9"/>
</g>
<defs>
<clipPath id="clip0_628_1041">
<rect width="43.4618" height="47.0836" fill="white"/>
</clipPath>
</defs>
</svg>
