<svg width="39" height="39" viewBox="0 0 39 39" fill="none" xmlns="http://www.w3.org/2000/svg">
<path d="M4.875 6.5V26H34.125V6.5H4.875ZM4.875 3.25H34.125C34.987 3.25 35.8136 3.59241 36.4231 4.2019C37.0326 4.8114 37.375 5.63805 37.375 6.5V26C37.375 26.8612 37.0337 27.69 36.4162 28.2913C35.815 28.9088 34.9863 29.25 34.125 29.25H22.75V32.5H26V35.75H13V32.5H16.25V29.25H4.875C4.01375 29.25 3.185 28.9088 2.58375 28.2913C1.96625 27.69 1.625 26.8612 1.625 26V6.5C1.625 4.69625 3.07125 3.25 4.875 3.25ZM17.615 14.5113C18.1187 14.0238 18.8013 13.7312 19.5 13.7312C20.1987 13.7475 20.8813 14.0237 21.385 14.5275C21.8725 15.015 22.165 15.6975 22.165 16.3962C22.165 17.1112 21.8725 17.7775 21.385 18.2812C20.8813 18.785 20.1987 19.0612 19.5 19.0612C18.8013 19.0612 18.1187 18.7688 17.615 18.2812C17.1275 17.7775 16.835 17.1112 16.835 16.3962C16.835 15.6975 17.1275 15.015 17.615 14.5113ZM16.3637 19.5C16.7699 19.9219 17.257 20.2575 17.7959 20.4867C18.3348 20.716 18.9144 20.8341 19.5 20.8341C20.0856 20.8341 20.6652 20.716 21.2041 20.4867C21.743 20.2575 22.2301 19.9219 22.6362 19.5C23.465 18.6875 23.9362 17.5662 23.9362 16.3962C23.9362 15.2262 23.465 14.0887 22.6362 13.26C21.8075 12.4313 20.67 11.96 19.5 11.96C18.33 11.96 17.1925 12.4313 16.3637 13.26C15.535 14.0887 15.0638 15.2262 15.0638 16.3962C15.0638 17.5662 15.535 18.6875 16.3637 19.5ZM9.75 16.3962C10.52 14.4376 11.8619 12.7561 13.6009 11.5707C15.3399 10.3853 17.3954 9.75089 19.5 9.75C23.9363 9.75 27.7225 12.5125 29.25 16.3962C28.4854 18.3586 27.1449 20.0437 25.4047 21.23C23.6645 22.4162 21.6061 23.0481 19.5 23.0425C15.0637 23.0425 11.2775 20.3125 9.75 16.3962Z" fill="white"/>
</svg>
