<svg width="40" height="40" viewBox="0 0 40 40" fill="none" xmlns="http://www.w3.org/2000/svg">
<g clip-path="url(#clip0_628_1060)">
<path d="M39.72 39.72V37.5133C39.72 35.7576 39.0225 34.0738 37.781 32.8323C36.5395 31.5908 34.8557 30.8933 33.1 30.8933H15.4467C13.6909 30.8933 12.0071 31.5908 10.7656 32.8323C9.52412 34.0738 8.82666 35.7576 8.82666 37.5133V39.72H39.72Z" fill="#77B255"/>
<path d="M24.2733 37.5133C25.1195 37.5133 29.7899 34.2033 29.7899 30.8933H18.7566C18.7566 34.2033 23.427 37.5133 24.2733 37.5133Z" fill="#3E721D"/>
<path d="M19.4629 30.9352C19.4629 34.0753 29.084 34.2033 29.084 30.9352V26.7988H19.4629V30.9352Z" fill="#7C533E"/>
<path d="M19.4539 28.6569C20.7955 30.1729 22.4593 30.5833 24.2688 30.5833C26.0772 30.5833 27.741 30.1729 29.0838 28.6569V24.8052H19.4539V28.6569Z" fill="#664131"/>
<path d="M27.7511 3.64106C25.6272 2.95369 21.2679 3.13353 20.0189 4.75764C17.9524 4.79736 18.258 8.851 14.3776 8.03123C13.5633 9.13897 12.9885 10.4564 12.8064 11.8664C12.3121 15.7005 13.0657 17.2441 13.4585 20.126C13.9031 23.3918 15.7391 24.4367 17.2065 24.8736C19.3183 27.6639 21.5636 27.5448 25.3337 27.5448C32.6951 27.5448 35.5627 22.6261 35.8727 14.2606C35.961 11.8808 35.3508 9.77339 34.125 8.02792C29.8915 9.67188 30.58 4.55683 27.7511 3.64106Z" fill="#0B0200"/>
<path d="M32.6002 14.6113C31.8874 13.625 30.9761 12.8306 28.9769 12.5503C29.7271 12.8935 31.0445 14.9799 31.1383 15.6363C31.2321 16.2928 31.3259 16.8235 30.7323 16.167C28.3546 13.5389 25.1659 13.6746 22.6007 12.0693C20.8089 10.9483 20.2627 9.70703 20.2627 9.70703C20.2627 9.70703 20.0443 11.362 17.3268 13.049C16.539 13.5378 15.5989 14.6268 15.0782 16.2355C14.703 17.3917 14.82 18.4223 14.82 20.1832C14.82 25.3247 19.0579 29.6476 24.2844 29.6476C29.5109 29.6476 33.7488 25.2861 33.7488 20.1832C33.7466 16.9857 33.4123 15.7367 32.6002 14.6113Z" fill="#7C533E"/>
<path d="M25.3336 22.8136H23.2306C23.0911 22.8136 22.9572 22.7581 22.8585 22.6594C22.7598 22.5607 22.7043 22.4269 22.7043 22.2873C22.7043 22.1477 22.7598 22.0138 22.8585 21.9151C22.9572 21.8164 23.0911 21.761 23.2306 21.761H25.3336C25.4732 21.761 25.607 21.8164 25.7057 21.9151C25.8044 22.0138 25.8599 22.1477 25.8599 22.2873C25.8599 22.4269 25.8044 22.5607 25.7057 22.6594C25.607 22.7581 25.4732 22.8136 25.3336 22.8136Z" fill="#3D2E24"/>
<path d="M20.0752 19.1329C19.7963 19.1329 19.5288 19.0222 19.3317 18.825C19.1345 18.6278 19.0237 18.3603 19.0237 18.0815V17.03C19.0237 16.7511 19.1345 16.4837 19.3317 16.2865C19.5288 16.0893 19.7963 15.9785 20.0752 15.9785C20.354 15.9785 20.6215 16.0893 20.8187 16.2865C21.0159 16.4837 21.1266 16.7511 21.1266 17.03V18.0815C21.1266 18.3603 21.0159 18.6278 20.8187 18.825C20.6215 19.0222 20.354 19.1329 20.0752 19.1329ZM28.4892 19.1329C28.2103 19.1329 27.9429 19.0222 27.7457 18.825C27.5485 18.6278 27.4377 18.3603 27.4377 18.0815V17.03C27.4377 16.7511 27.5485 16.4837 27.7457 16.2865C27.9429 16.0893 28.2103 15.9785 28.4892 15.9785C28.768 15.9785 29.0355 16.0893 29.2327 16.2865C29.4299 16.4837 29.5407 16.7511 29.5407 17.03V18.0815C29.5407 18.3603 29.4299 18.6278 29.2327 18.825C29.0355 19.0222 28.768 19.1329 28.4892 19.1329Z" fill="black"/>
<path d="M24.4213 27.2048C21.3827 27.2048 20.4493 26.427 20.2937 26.2692C20.2249 26.2038 20.1696 26.1256 20.131 26.0389C20.0924 25.9521 20.0713 25.8587 20.0688 25.7638C20.0639 25.5722 20.1352 25.3865 20.2672 25.2475C20.3992 25.1085 20.581 25.0276 20.7726 25.0226C20.9642 25.0177 21.1499 25.089 21.2889 25.221C21.3463 25.2618 22.0844 25.7583 24.4213 25.7583C26.8486 25.7583 27.5503 25.2232 27.5569 25.2177C27.6236 25.1516 27.7028 25.0995 27.7899 25.0645C27.877 25.0295 27.9702 25.0122 28.0641 25.0138C28.1579 25.0153 28.2506 25.0356 28.3365 25.0735C28.4224 25.1113 28.4998 25.166 28.5643 25.2342C28.698 25.3745 28.7713 25.5617 28.7684 25.7554C28.7655 25.9492 28.6867 26.1341 28.5488 26.2703C28.3922 26.427 27.4598 27.2048 24.4213 27.2048Z" fill="#3D2E24"/>
<path d="M14.3433 30.8933H17.6533V39.72H14.3433V30.8933ZM30.8933 30.8933H34.2033V39.72H30.8933V30.8933Z" fill="#3B88C3"/>
<path d="M14.4812 38.6167H34.2033V39.72H14.4812V38.6167Z" fill="#3B88C3"/>
<path d="M33.1001 9.70933C33.1001 11.1657 29.6886 12.1367 24.2734 12.1367C18.8572 12.1367 15.4468 11.1657 15.4468 9.70933C15.4468 5.79581 19.8601 0 21.3309 0C22.8027 0 23.7836 1.94187 24.2734 1.94187C24.7633 1.94187 25.7442 0 27.216 0C28.6868 0 33.1001 5.79581 33.1001 9.70933Z" fill="#C1694F"/>
<path d="M39.6548 8.82667C39.6548 10.6549 35.7931 15.4467 24.2081 15.4467C12.6231 15.4467 8.76147 10.6549 8.76147 8.82667C8.76147 6.99845 16.2862 7.72334 24.2081 7.72334C32.1301 7.72334 39.6548 6.99845 39.6548 8.82667Z" fill="#C1694F"/>
<path d="M33.1001 9.70939C33.1001 11.1658 29.6886 12.1367 24.2734 12.1367C18.8572 12.1367 15.4468 11.1658 15.4468 9.70939C15.4468 9.0849 15.5593 8.41297 15.7546 7.72339C18.3894 9.93006 30.1575 9.93006 32.7934 7.7278C32.9865 8.41518 33.1001 9.08601 33.1001 9.70939Z" fill="#292F33"/>
<path d="M7.72342 35.0308C7.72342 34.665 7.57812 34.3142 7.31947 34.0556C7.06083 33.7969 6.71003 33.6516 6.34425 33.6516C5.97848 33.6516 5.62768 33.7969 5.36904 34.0556C5.11039 34.3142 4.96509 34.665 4.96509 35.0308V39.7199H7.72342V35.0308Z" fill="#C1694F"/>
<path d="M11.0366 25.1009C11.0366 27.6937 8.9359 29.7933 6.34417 29.7933C3.75244 29.7933 1.65169 27.6937 1.65169 25.1009C1.65169 25.006 0 25.0082 0 25.1009C0 26.7834 0.668401 28.3971 1.85816 29.5869C3.04793 30.7766 4.66159 31.445 6.34417 31.445C8.02675 31.445 9.64041 30.7766 10.8302 29.5869C12.0199 28.3971 12.6883 26.7834 12.6883 25.1009C12.6883 25.0082 11.0366 25.006 11.0366 25.1009Z" fill="#66757F"/>
<path d="M1.655 25.1009C1.655 25.3203 1.56782 25.5308 1.41263 25.686C1.25744 25.8412 1.04697 25.9284 0.8275 25.9284C0.608033 25.9284 0.397556 25.8412 0.242369 25.686C0.0871828 25.5308 0 25.3203 0 25.1009L0 15.7225C0 15.5031 0.0871828 15.2926 0.242369 15.1374C0.397556 14.9822 0.608033 14.895 0.8275 14.895C1.04697 14.895 1.25744 14.9822 1.41263 15.1374C1.56782 15.2926 1.655 15.5031 1.655 15.7225V25.1009ZM12.6883 25.1009C12.6883 25.3203 12.6012 25.5308 12.446 25.686C12.2908 25.8412 12.0803 25.9284 11.8608 25.9284C11.6414 25.9284 11.4309 25.8412 11.2757 25.686C11.1205 25.5308 11.0333 25.3203 11.0333 25.1009V15.7225C11.0333 15.5031 11.1205 15.2926 11.2757 15.1374C11.4309 14.9822 11.6414 14.895 11.8608 14.895C12.0803 14.895 12.2908 14.9822 12.446 15.1374C12.6012 15.2926 12.6883 15.5031 12.6883 15.7225V25.1009ZM7.17167 34.2034C7.17167 34.4228 7.08449 34.6333 6.9293 34.7885C6.77411 34.9437 6.56363 35.0309 6.34417 35.0309C6.1247 35.0309 5.91422 34.9437 5.75904 34.7885C5.60385 34.6333 5.51667 34.4228 5.51667 34.2034V15.7225C5.51667 15.5031 5.60385 15.2926 5.75904 15.1374C5.91422 14.9822 6.1247 14.895 6.34417 14.895C6.56363 14.895 6.77411 14.9822 6.9293 15.1374C7.08449 15.2926 7.17167 15.5031 7.17167 15.7225V34.2034Z" fill="#66757F"/>
</g>
<defs>
<clipPath id="clip0_628_1060">
<rect width="39.72" height="39.72" fill="white"/>
</clipPath>
</defs>
</svg>
